<svg width="256" height="287" viewBox="0 0 256 287" fill="none" xmlns="http://www.w3.org/2000/svg">
<path d="M63.2232 205.907C55.1619 205.907 46.6401 204.64 37.6575 202.107C28.9053 199.804 21.0744 195.888 14.1648 190.36C7.48544 184.833 2.99418 177.462 0.690965 168.25C0.460643 167.098 0.230321 165.831 0 164.449C0 163.067 0 161.685 0 160.304C0 153.164 1.61225 146.254 4.83675 139.575C8.06124 132.895 11.9767 127.828 16.5831 124.373H16.9286C17.3893 124.373 17.9651 124.949 18.656 126.101C19.5773 127.022 19.5773 127.713 18.656 128.174C16.3528 130.477 14.6254 133.126 13.4738 136.12C12.5525 138.884 12.0919 141.878 12.0919 145.102C12.0919 149.478 12.7828 153.97 14.1648 158.576C15.777 162.952 17.7347 166.753 20.0379 169.977C25.796 178.038 33.7421 184.487 43.8762 189.324C54.2407 193.93 64.3748 196.234 74.2786 196.234C87.8676 196.234 98.3472 192.203 105.717 184.142C113.318 176.081 117.118 166.177 117.118 154.43C117.118 147.29 115.736 140.15 112.973 133.011C109.287 123.107 104.336 113.433 98.1169 103.99C92.1285 94.3165 86.6008 84.8734 81.5337 75.6605C77.1576 67.369 74.9696 58.9622 74.9696 50.4403C74.9696 41.4578 77.7334 32.8208 83.2611 24.5292C88.7888 17.1589 96.044 11.2858 105.026 6.90964C114.239 2.30322 123.567 0 133.011 0C139.46 0 145.678 1.15161 151.667 3.45482C157.655 5.75803 163.067 9.55833 167.904 14.8557C169.286 16.9286 169.977 19.5773 169.977 22.8018C169.977 27.4082 169.056 30.9782 167.213 33.5117C165.14 36.5059 162.837 40.4214 160.304 45.2581C157.77 50.0949 156.273 53.4345 155.812 55.2771C155.352 55.5074 154.2 55.9681 152.358 56.659C150.745 57.1197 149.709 57.0045 149.248 56.3135C150.169 54.471 151.436 51.1313 153.048 46.2946C154.661 41.4578 155.467 37.0817 155.467 33.1663C155.467 30.6327 155.352 27.8689 155.121 24.8747C155.121 21.6502 153.624 18.8864 150.63 16.5831C147.866 14.0496 144.296 11.8615 139.92 10.019C135.544 8.17641 130.247 7.25513 124.028 7.25513C111.36 7.25513 101.687 10.9403 95.0075 18.3106C88.3282 25.6808 84.9885 33.7421 84.9885 42.4943C84.9885 46.8704 85.9098 51.2465 87.7524 55.6226C91.2072 63.9141 96.044 71.7451 102.263 79.1153C108.481 86.4856 114.585 94.0862 120.573 101.917C126.792 109.518 131.629 117.809 135.083 126.792C137.387 132.78 138.538 138.884 138.538 145.102C138.538 154.085 136.235 162.261 131.629 169.632C127.252 177.002 121.264 183.451 113.664 188.979C106.293 194.276 98.232 198.422 89.4798 201.416C80.7276 204.41 71.9754 205.907 63.2232 205.907Z" fill="white"/>
<path d="M81.7452 195.793C80.1701 198.749 78.5951 201.708 77.02 204.67C81.173 203.924 85.326 202.84 89.4791 201.419C93.0492 200.198 96.5043 198.785 99.8445 197.18C101.451 194.083 103.062 190.992 104.679 187.905C105.721 185.872 106.757 183.832 107.788 181.788C107.132 182.59 106.442 183.376 105.717 184.145C100.886 189.429 94.7184 192.981 87.2153 194.802C85.4646 195.226 83.6413 195.557 81.7452 195.793Z" fill="white"/>
<path d="M115.898 165.368C116.885 163.327 117.867 161.281 118.844 159.23C123.68 149.327 128.747 139.768 134.045 130.555C134.548 129.732 135.052 128.903 135.555 128.07C135.403 127.645 135.246 127.219 135.083 126.795C132.805 120.873 129.927 115.252 126.448 109.931C126.328 110.125 126.211 110.32 126.099 110.517C124.486 113.051 122.989 115.7 121.607 118.464L118.153 126.755L113.838 135.383C116.025 141.734 117.118 148.084 117.118 154.434C117.118 156.666 116.98 158.832 116.706 160.931C116.508 162.445 116.239 163.924 115.898 165.368Z" fill="white"/>
<path d="M95.8235 100.264C103.372 99.111 110.575 98.3047 117.43 97.8454C115.925 95.9113 114.414 93.9917 112.895 92.0863C108.084 92.1667 103.272 92.2069 98.4602 92.2069C96.3125 92.2069 93.8559 92.2687 91.0901 92.3924C91.2859 92.723 91.4822 93.054 91.679 93.3852C93.034 95.6649 94.4155 97.9579 95.8235 100.264Z" fill="white"/>
<path d="M71.9438 93.8516C69.2665 94.2331 66.5893 94.7213 63.912 95.3163C57.6933 96.6982 52.396 99.1166 48.0198 102.571C43.8741 105.796 41.8012 110.517 41.8012 116.736C41.8012 119.27 42.1467 121.803 42.8376 124.337C43.2983 125.488 44.3347 127.792 45.947 131.246C47.7895 134.471 49.7473 137.465 51.8201 140.229C53.893 142.993 55.6204 144.375 57.0024 144.375C57.463 144.375 58.0388 144.144 58.7298 143.684C59.4207 143.223 59.7662 142.762 59.7662 142.302C59.7662 141.841 58.7298 140.805 56.6569 139.192C54.584 137.58 53.5476 134.471 53.5476 129.864C53.5476 125.949 54.6992 121.918 57.0024 117.773C59.5359 113.166 64.1423 109.481 70.8216 106.717C73.1167 105.799 75.5134 104.957 78.0117 104.192C75.9317 100.719 73.909 97.2723 71.9438 93.8516Z" fill="white"/>
<path d="M134.314 91.4391C135.707 93.1598 137.043 94.913 138.32 96.6982H146.482C144.428 97.3402 142.302 98.197 140.104 99.2685C142.516 102.852 144.701 106.56 146.656 110.39C147.845 108.762 149.054 107.192 150.282 105.681C153.277 102.226 157.077 100.038 161.683 99.1166C166.52 98.1953 171.127 97.7347 175.503 97.7347C193.237 97.7347 207.517 102.687 218.342 112.59C229.398 122.264 234.926 136.083 234.926 154.048C234.926 161.879 233.889 169.825 231.816 177.886C229.974 185.948 227.555 193.663 224.561 201.034C218.112 216.696 209.245 230.63 197.959 242.837C186.673 254.814 173.545 264.142 158.574 270.821C143.603 277.5 127.481 280.84 110.207 280.84C105.14 280.84 99.727 280.379 93.9689 279.458C88.2109 278.306 83.1438 276.118 78.7677 272.894C76.6948 271.051 74.7371 269.094 72.8945 267.021C71.052 264.948 70.1307 262.414 70.1307 259.42C70.1307 257.808 70.361 256.426 70.8216 255.274C71.2823 253.892 71.7429 252.626 72.2036 251.474L77.0403 241.801C78.8829 238.346 80.6103 235.006 82.2225 231.782C84.2155 227.796 86.2169 223.818 88.2267 219.849C81.2525 221.715 74.2016 222.812 67.0937 223.105C58.9625 237.893 50.5316 252.532 41.8012 267.021C39.7283 270.706 37.1948 273.93 34.2006 276.694C31.4367 279.228 28.0971 281.185 24.1816 282.567C22.6683 283 21.8652 283.128 21.7723 282.951C21.8206 282.926 21.8176 282.913 21.7632 282.913C21.7632 282.927 21.7663 282.94 21.7723 282.951C21.616 283.034 20.922 283.252 19.6903 283.604L19.3449 283.949C19.1145 284.18 18.9994 284.41 18.9994 284.64C18.9994 285.331 19.5752 285.792 20.7268 286.022C21.8784 286.483 22.6845 286.713 23.1452 286.713C26.6 286.713 30.17 285.446 33.8551 282.913C37.5402 280.61 41.3405 278.306 45.256 276.003C49.1715 273.47 53.0869 272.203 57.0024 272.203C58.8449 272.203 60.5724 272.548 62.1846 273.239C64.0272 273.7 65.7546 274.391 67.3668 275.312C74.5068 278.997 82.1074 281.646 90.1686 283.258C98.4602 284.871 106.521 285.677 114.352 285.677C165.023 285.677 204.408 264.602 232.507 222.454C239.186 212.55 244.714 201.379 249.09 188.942C253.697 176.274 256 163.952 256 151.975C256 138.847 253.351 128.252 248.054 120.191C242.987 112.13 236.192 105.911 227.67 101.535C219.148 97.1588 209.59 94.2798 198.995 92.8979C188.631 91.2857 178.036 90.4795 167.211 90.4795C156.352 90.4795 145.386 90.7994 134.314 91.4391Z" fill="white"/>
</svg>
